<svg xmlns="http://www.w3.org/2000/svg" version="1.1" xmlns:xlink="http://www.w3.org/1999/xlink" width="1000" height="1000"><g clip-path="url(#SvgjsClipPath1086)"><rect width="1000" height="1000" fill="#e9e7e4"></rect><g transform="matrix(12.307692307692308,0,0,12.307692307692308,100,100)"><svg xmlns="http://www.w3.org/2000/svg" version="1.1" xmlns:xlink="http://www.w3.org/1999/xlink" width="65" height="65"><svg style="background:#e9e7e4" xmlns="http://www.w3.org/2000/svg" viewBox="23 76 65 65"><path d="M67.9,108.53c.48,2.63,1.24,5.26,1.85,7.89.49,2.1.99,4.22.97,6.29-.04,3.89-1.82,7.58-4.25,11.06-2,2.85-4.71,4.82-7.95,5.97-1.74.62-3.32.46-4.75-.28-1.81-.94-2.96-2.46-3.94-4.2-2.15-3.82-2.84-8.2-4.57-12.73-1.23-3.23-2.72-6.53-4.18-9.8-.91-2.05-1.76-4.11-2.15-6.16-.46-2.4-.29-4.8.14-7.19.38-2.1.9-4.21,1.7-6.26,1.76-4.49,4.21-8.81,7.34-12.59,1.28-1.55,2.81-2.72,4.57-3.54,1.64-.76,3.29-.9,4.98-.26,2.45.92,4.39,2.41,5.31,4.8.75,1.95,1.54,3.84,2,5.85.85,3.73.94,7.62.97,11.64.02,2.46.44,4.91,1.2,7.37.22.7.35,1.42.56,2.12l.22.02h0ZM47.28,107.69c-.07,0-.14,0-.22,0,.98,3.06,2.3,6.12,3.57,9.17,1.73,4.16,2.83,8.33,3.06,12.47.12,2.08.45,4.13.71,6.16.16,1.31.82,2.38,2.3,2.43,1.41.05,2.35-.98,3.14-2.13,1.31-1.91,2.12-3.97,2.63-6.05.7-2.84.86-5.71.55-8.56-.34-3.15-1.31-6.32-2.42-9.5-.14-.41-.31-.83-.38-1.24-.65-3.77-1.88-7.53-1.9-11.28-.03-3.63.07-7.24.2-10.85.09-2.57-.05-5.1-.99-7.43-.23-.57-.54-1.14-.96-1.58-1.07-1.13-2.38-1.07-3.56.14-.42.43-.77.96-1.05,1.5-.41.82-.77,1.67-1.12,2.52-1.03,2.57-1.85,5.2-2.52,7.84-.82,3.22-1.71,6.43-1.96,9.66-.17,2.23.29,4.48.89,6.72h0Z" style="fill:#161616;"></path></svg></svg></g></g><defs><clipPath id="SvgjsClipPath1086"><rect width="1000" height="1000" x="0" y="0" rx="250" ry="250"></rect></clipPath></defs></svg>