<?xml version="1.0" encoding="UTF-8"?><svg id="Layer_1" xmlns="http://www.w3.org/2000/svg" viewBox="0 0 349.33 102.64"><defs><style>.cls-1{fill:#3a312a}</style></defs><path class="cls-1" d="M35.54,87.71c-.83.23-1.35.49-1.87.5-4.87.03-9.75.02-14.62.01-.36,0-.8,0-1.04-.2-.28-.24-.5-.68-.53-1.05-.02-.31.25-.67.44-.97,1.99-3.01,2.37-6.3,1.89-9.8-.16-1.2.04-2.46.03-3.69-.01-1.15-.09-2.3-.15-3.45-.05-.9-.56-1.31-1.43-1.26-.79.04-1.59.14-2.38.18-1.31.07-2.62.06-3.92.16-1.19.09-1.85.51-1.86,1.45-.02,3.33-.03,6.68.22,9.99.11,1.39.88,2.74,1.39,4.1.47,1.27,1.22,2.3,2.57,2.79.32.11.57.39,1.1.76-.49.38-.81.71-1.19.9-.24.12-.57.07-.86.08-3.86.01-7.71.02-11.57.02-.65,0-1.34.04-1.77-.98.35-.37.7-.93,1.21-1.24,2.08-1.27,3.1-3.23,3.71-5.45.36-1.32.59-2.69.72-4.05.45-4.61.84-9.23,1.24-13.84.05-.58.05-1.16.08-1.74.32-5.57.64-11.15.96-16.73.14-2.53.22-5.07.41-7.6.36-4.7.78-9.39,1.18-14.08.16-1.88.15-3.79.55-5.61.37-1.67,1.07-3.31,1.87-4.84.81-1.55,2.16-2.54,4.07-2.42.36.02.73,0,1.09-.03,3.35-.28,5.45,1.35,6.84,4.62.65,1.51,1.03,3.18,1.26,4.82.44,3.08.75,6.19,1,9.29.49,6.07.9,12.15,1.35,18.22.27,3.76.49,7.52.84,11.27.3,3.24.74,6.47,1.14,9.71.32,2.59.47,5.22,1.04,7.75.65,2.89,1.67,5.7,2.6,8.51.22.66.75,1.23,1.13,1.84.37.59.72,1.18,1.25,2.04h0ZM16,14.95c-1.83.31-2.36,1.44-2.5,2.83-.43,4.4-.89,8.79-1.2,13.19-.38,5.27-.65,10.56-.94,15.84-.2,3.69-.36,7.39-.54,11.08-.03.51-.11,1.01-.14,1.51-.08,1.23-.21,2.46-.19,3.69.02,1.4.59,1.98,2.02,1.96,1.74-.03,3.47-.22,5.2-.33.83-.05,1.4-.43,1.52-1.27.13-.92.24-1.85.26-2.78.01-.57-.21-1.14-.25-1.71-.29-4.7-.69-9.4-.81-14.11-.13-5.15-.13-10.3-.58-15.44-.29-3.32-.27-6.67-.45-10-.05-1.01-.19-2.03-.46-3-.16-.56-.65-1.03-.95-1.47h0Z"/><path class="cls-1" d="M64.02,10.37c.17,1.05.4,1.81.41,2.58.03,4.51.03,9.02-.02,13.53-.02,1.52-.19,3.04-.32,4.56-.02.26-.19.51-.43,1.11-.4-.61-.76-.94-.84-1.34-.62-2.98-1.15-5.98-1.78-8.95-.47-2.22-1.17-4.36-3-5.91-.17-.14-.31-.31-.48-.44-2.27-1.68-4.3-1.38-5.25,1.48-.65,1.98-1.1,4.08-1.25,6.16-.31,4.27-.4,8.56-.51,12.84-.07,2.62,0,5.24,0,7.85,0,.51-.04,1.03.05,1.52.22,1.11,1.15,1.56,2.11.95,1.43-.9,2.6-2.11,3.38-3.62.66-1.29,1.23-2.63,1.86-3.94.14-.29.39-.53.76-1.01.27.56.6.92.57,1.25-.12,1.51-.22,3.04-.54,4.52-.99,4.56-.86,9.07.27,13.57.34,1.36.33,2.67.19,4.4-.66-.47-1.1-.63-1.25-.93-.49-.97-.85-2-1.32-2.99-.73-1.52-1.68-2.9-2.99-3.98-.43-.35-.97-.65-1.51-.77-.88-.19-1.41.22-1.55,1.09-.1.64-.1,1.3-.1,1.96,0,4.65-.14,9.32.09,13.96.19,3.82.77,7.64,1.34,11.43.15,1.02.88,1.96,1.34,2.94.31.65.7,1.28.88,1.97.3,1.11-.24,1.83-1.36,1.99-.36.05-.73.03-1.09.04-3.42.03-6.84.06-10.26.07-.64,0-1.28-.07-1.95-.11-.65-1.39-.04-2.52.51-3.58.98-1.89,1.67-3.86,2.05-5.94.25-1.35.5-2.71.59-4.08.21-3.19.42-6.38.44-9.57.06-10.76.17-21.53-.03-32.29-.08-4.25-.08-8.58-1.19-12.75-.48-1.81-1.27-3.54-1.9-5.31-.27-.75-.61-1.48-.73-2.25-.14-.93.26-1.39,1.23-1.39,2.03,0,4.07.14,6.1.16,2.53.03,5.07.08,7.6-.04,3.18-.15,6.36-.46,9.88-.72h0Z"/><path class="cls-1" d="M67.39,32.14c-.4-.35-.68-.48-.73-.69-.08-.33-.03-.71.02-1.07.77-5.52,1.86-11.04,2.29-16.56.25-3.18.65-3.65,3.72-3.27,7.45.93,14.96.23,22.44.26,2.82.01,5.65-.3,8.3-.45.91.7.91,1.5.86,2.31-.38,5.67-1.64,11.35-2.58,17.02-.16.94-.35,1.88-1.46,2.49-.71-1.01-.36-2.25-.43-3.33-.15-2.33-.09-4.69-.16-7.03-.05-1.89-.66-3.57-1.58-5.1-.38-.62-.96-1.18-1.6-1.54-1.58-.9-2.94-.54-3.91,1.19-.92,1.65-1.7,3.41-2.39,5.16-.55,1.4-.89,2.88-1.22,4.32-3.04,13.36,1.52,26.74,4.67,40.11,1.02,4.34,1.4,8.66,1.27,12.99-.06,2.06.52,3.9,1.14,5.71.36,1.04.65,2.09-.23,3.4-.46.06-.97.17-1.46.17-3.86.01-7.71,0-11.57,0-.29,0-.59.02-.87-.03-.87-.14-1.18-.6-.82-1.52.3-.77.69-1.56,1.19-2.25,2.54-3.54,3.79-7.36,4-11.33.37-6.9-2.32-13.8-4.47-20.7-2.22-7.11-2.72-14.22-1.76-21.33.42-3.11.72-6.23.81-9.31.05-1.77-.22-3.55-.75-5.18-.71-2.19-3.01-2.45-4.89-.7-2.34,2.19-3.67,4.94-4.72,7.84-.88,2.42-1.75,4.85-2.56,7.27-.09.27-.26.53-.55,1.13h0Z"/><path class="cls-1" d="M133.25,31.85c-.71-.56-.76-1.27-.88-1.99-.41-2.43-.86-4.85-1.31-7.27-.36-1.95-1.2-3.72-2.17-5.44-.59-1.04-1.35-1.89-2.47-2.37-1.74-.76-3.5-.17-4.08,1.64-.6,1.85-1.04,3.77-1.32,5.7-.68,4.76-.52,9.57-.55,14.36,0,2.1-.22,4.2-.28,6.3-.02.71.1,1.45.28,2.14.38,1.52,1.31,1.87,2.52.91,1.61-1.29,2.86-2.89,3.71-4.78.33-.73.59-1.49.93-2.21.15-.31.41-.57.6-.81.89.03,1.07.61,1.01,1.21-.12,1.15-.29,2.3-.54,3.43-1.04,4.54-1.03,9.05.06,13.58.28,1.19.39,2.43.48,3.65.03.36-.29.75-.46,1.17-1.25-.6-1.5-1.75-1.86-2.73-.77-2.03-2.05-3.65-3.59-5.13-.69-.66-1.41-1-2.48-.66-.52,1.37-.68,2.85-.61,4.37.08,1.81.22,3.62.25,5.43.05,3.05,0,6.11.07,9.17.08,3.27.5,6.51,1.34,9.67.22.81.62,1.66,1.2,2.25,1.16,1.19,2.95,1.11,4.35-.09,1.35-1.16,2.36-2.61,2.81-4.33.66-2.52,1.15-5.08,1.71-7.62.32-1.47.63-2.95.93-4.36.89-.12,1.1.34,1.16.87.06.5.05,1.02.05,1.53.01,5.38.02,10.77.03,16.15,0,.22,0,.44,0,.65-.06,1.82-.25,2.07-2.02,1.99-1.81-.08-3.61-.4-5.42-.42-4.88-.06-9.75-.02-14.63-.03-.65,0-1.32.04-1.96-.07-.93-.17-1.32-.84-1.07-1.76.17-.62.4-1.25.71-1.82,1.72-3.2,2.32-6.66,2.63-10.24,1.01-11.68.91-23.38.7-35.08-.11-6.16-.25-12.35-1.27-18.44-.28-1.69-1.06-3.3-1.65-4.93-.29-.82-.74-1.58-1.01-2.4-.42-1.28.02-2.01,1.35-2.04,1.89-.04,3.78.13,5.66.15,2.39.03,4.79.09,7.17-.02,2.97-.13,5.94-.46,8.91-.63,1.59-.09,1.9.22,1.91,1.88.03,3.64,0,7.28,0,10.91,0,2.18,0,4.37-.02,6.55,0,.71.12,1.49-.84,2.01h0Z"/><path class="cls-1" d="M170.08,86.21c-.67,1.18-1.61,1.64-2.77,1.63-2.27-.03-4.32-.8-5.86-2.46-.65-.7-1.13-1.76-1.26-2.71-.57-4.17-1.04-8.35-.98-12.57.05-3.92-.2-7.83-.83-11.71-.17-1.06-.51-2.12-.92-3.12-.75-1.87-2.23-2.03-3.46-.41-.91,1.21-1.22,2.67-1.25,4.11-.09,4.87-.15,9.75-.02,14.62.06,2.45.42,4.92.91,7.33.29,1.47,1.06,2.84,1.65,4.24.33.79.85,1.55.24,2.53-.22.05-.49.16-.77.17-3.78.14-7.55.27-11.33.39-.87.03-1.76.1-2.45-.76.12-1.2.45-2.37,1.02-3.47,1.61-3.09,2.31-6.4,2.42-9.85.18-5.44.36-10.89.49-16.34.13-5.15.36-10.32.26-15.47-.12-6.02-.49-12.04-.85-18.05-.2-3.42-.9-6.75-2.57-9.81-.31-.57-.52-1.2-.68-1.83-.27-1.1.24-1.81,1.39-1.98.36-.05.73-.03,1.09-.03,4.22-.03,8.44,0,12.66-.1,3.59-.09,6.08,1.55,7.85,4.53,2.27,3.83,3.52,7.92,3.44,12.42-.06,3.56,0,7.11-.8,10.61-.83,3.64-1.96,7.12-4.22,10.17-1.6,2.17-1.61,2.32.44,4.1,3.24,2.81,4.36,6.51,5.08,10.54.78,4.37-.34,8.49-1.05,12.69-.32,1.92-.35,3.9-.32,5.85.02,1.42.71,2.63,1.95,3.47.53.36.98.83,1.48,1.27h0ZM160.65,29.7c-.25-2.09-.51-5.34-1.06-8.55-.34-1.98-1.06-3.91-1.74-5.82-.26-.72-.77-1.42-1.32-1.97-1.04-1.05-2.38-.86-3.05.44-.39.75-.72,1.62-.78,2.45-.2,2.82-.37,5.65-.37,8.48,0,3.56.19,7.11.25,10.67.02,1.08-.23,2.17-.21,3.25.04,2.39.17,4.78.28,7.17.02.51,0,1.04.15,1.51.28.91.65,1.84,1.72,2.07,1.04.23,1.9-.31,2.47-1.08.59-.8,1.08-1.73,1.43-2.67,1.77-4.77,1.97-9.78,2.24-15.96h0Z"/><path class="cls-1" d="M175.72,86.74c.1-1.43.94-1.9,1.58-2.4,2.25-1.75,3.21-4.16,3.24-6.85.08-7.13.24-14.27-.13-21.39-.2-3.72.47-7.39.13-11.08-.69-7.62-.31-15.26-.29-22.89,0-2.29.41-4.64,1.02-6.85,1.48-5.36,7.86-7.35,12.23-3.91,1.21.95,2.18,2.09,2.89,3.5,1.43,2.84,2.07,5.87,2.51,8.97.73,5.17,1.43,10.34,2.1,15.51.39,3.02.66,6.06,1.01,9.08.52,4.39,1.09,8.77,1.61,13.16.5,4.18.92,8.36,1.46,12.53.25,1.93.71,3.84,1.08,5.76.04.21.11.42.19.63.42,1.13,1.25,1.98,1.9,1.84,1.08-.23,1.5-1.07,1.63-2.07.17-1.37.43-2.74.43-4.1.04-8,.04-16.01.02-24.01-.01-5.89-.04-11.79-.12-17.68-.05-3.92-.12-7.85-.31-11.76-.2-4.23-1.64-7.92-5.13-10.59-.17-.13-.27-.33-.42-.5.18-.78.74-1.05,1.44-1.07,1.02-.02,2.04-.03,3.06,0,2.61.08,5.23.18,7.84.29.7.03,1.51-.12,1.87,1.04-.43.43-.87,1.01-1.44,1.41-2.3,1.6-3.08,3.96-3.36,6.55-.12,1.15-.06,2.33-.06,3.49.05,14.41.1,28.81.16,43.22,0,.72.13,1.44.16,2.17.21,4.36.06,8.71-.8,13-.57,2.83-2.24,4.83-4.95,5.94-1.84.76-3.69.82-5.5.01-2.25-1.01-4.02-2.53-5.06-4.87-1.17-2.61-1.91-5.31-2.3-8.14-.67-4.95-1.39-9.9-2.04-14.86-.52-3.95-.96-7.92-1.45-11.87-.54-4.39-1.12-8.77-1.63-13.16-.38-3.31-.58-6.65-1.02-9.96-.33-2.51-.9-4.99-1.4-7.47-.08-.41-.32-.83-.58-1.16-.71-.9-2-.78-2.5.26-.32.65-.58,1.36-.66,2.06-.21,1.95-.43,3.9-.44,5.86-.03,9.31.01,18.63.03,27.94,0,1.95-.05,3.91-.01,5.85.12,5.67.09,11.34.47,16.99.26,3.98,1.64,7.66,4.92,10.32.29.24.67.86.58.98-.27.35-.75.75-1.15.76-2.84.06-5.68.02-8.52,0-.73,0-1.46.05-2.18-.03-.69-.07-1.37-.28-2.12-.44h0Z"/><path class="cls-1" d="M258.02,49.31c.59,3.24,1.52,6.48,2.28,9.72.6,2.59,1.23,5.2,1.2,7.75-.06,4.79-2.25,9.35-5.25,13.63-2.46,3.52-5.81,5.94-9.8,7.36-2.15.76-4.09.57-5.85-.35-2.23-1.16-3.65-3.03-4.86-5.18-2.65-4.7-3.5-10.11-5.63-15.69-1.52-3.98-3.35-8.04-5.15-12.08-1.13-2.52-2.17-5.07-2.66-7.59-.57-2.96-.36-5.92.17-8.86.47-2.58,1.1-5.19,2.09-7.72,2.17-5.54,5.19-10.86,9.05-15.52,1.58-1.91,3.46-3.35,5.63-4.36,2.02-.94,4.06-1.11,6.14-.32,3.02,1.14,5.41,2.97,6.54,5.92.92,2.4,1.9,4.73,2.46,7.21,1.05,4.59,1.16,9.39,1.19,14.35.02,3.04.54,6.06,1.48,9.09.27.87.44,1.74.69,2.61l.27.02h0ZM232.61,48.28c-.09,0-.18,0-.27,0,1.21,3.77,2.84,7.54,4.41,11.3,2.14,5.13,3.49,10.27,3.78,15.37.14,2.57.56,5.09.87,7.59.2,1.61,1.01,2.93,2.84,3,1.73.06,2.9-1.2,3.87-2.63,1.61-2.35,2.61-4.9,3.24-7.46.86-3.5,1.06-7.03.68-10.55-.42-3.89-1.62-7.79-2.98-11.71-.18-.51-.38-1.03-.47-1.53-.8-4.65-2.31-9.29-2.34-13.91-.03-4.47.09-8.92.25-13.37.11-3.17-.06-6.29-1.22-9.16-.28-.7-.67-1.4-1.19-1.94-1.32-1.4-2.93-1.32-4.39.18-.52.53-.95,1.19-1.29,1.85-.51,1.01-.96,2.06-1.38,3.11-1.27,3.17-2.28,6.4-3.11,9.66-1.01,3.97-2.11,7.93-2.41,11.9-.21,2.75.36,5.52,1.1,8.29h0Z"/><path class="cls-1" d="M302.34,49.31c-.34,3.24-.67,6.48-1.03,9.72-.29,2.59-.48,5.2-.99,7.75-.96,4.79-2.63,9.35-5.01,13.63-1.95,3.52-4.82,5.94-8.56,7.36-2.01.76-3.99.57-5.92-.35-2.43-1.16-4.2-3.03-5.76-5.18-3.41-4.7-5.06-10.11-6.1-15.69-.74-3.98-1.02-8.04-1.39-12.08-.23-2.52-.42-5.07-.32-7.59.12-2.96.52-5.92.89-8.86.33-2.58.63-5.19,1.22-7.72,1.29-5.54,3.18-10.86,6.57-15.52,1.39-1.91,3.21-3.35,5.36-4.36,2-.94,4.04-1.11,6.13-.32,3.03,1.14,5.47,2.97,6.96,5.92,1.21,2.4,2.57,4.73,3.57,7.21,1.86,4.59,2.93,9.39,3.28,14.35.21,3.04.58,6.06.83,9.09.07.87.01,1.74.01,2.62.09,0,.17.02.26.02ZM277.22,48.28c-.09,0-.18,0-.27,0,.2,3.77.33,7.54.62,11.3.39,5.13.78,10.27,1.41,15.37.32,2.57,1.08,5.09,1.81,7.59.46,1.61,1.52,2.93,3.35,3,1.75.06,2.68-1.2,3.42-2.63,1.22-2.35,1.85-4.9,2.29-7.46.59-3.5.95-7.03,1.42-10.55.52-3.89.87-7.79.87-11.71,0-.51-.03-1.03.05-1.53.73-4.65.03-9.29-.27-13.91-.3-4.47-1-8.92-1.63-13.37-.45-3.16-1.16-6.29-2.63-9.16-.36-.7-.81-1.4-1.37-1.94-1.43-1.4-3.03-1.32-4.38.18-.47.53-.85,1.19-1.11,1.85-.4,1.01-.71,2.06-.98,3.11-.81,3.17-1.19,6.4-1.46,9.66-.32,3.97-.85,7.93-1.1,11.9-.17,2.75-.03,5.52-.03,8.29h0Z"/><path class="cls-1" d="M305.29,86.74c.1-1.43.94-1.9,1.58-2.4,2.25-1.75,3.21-4.16,3.24-6.85.08-7.13.24-14.27-.13-21.39-.2-3.72.47-7.39.13-11.08-.69-7.62-.31-15.26-.29-22.89,0-2.29.41-4.64,1.02-6.85,1.48-5.36,7.86-7.35,12.23-3.91,1.21.95,2.18,2.09,2.89,3.5,1.43,2.84,2.07,5.87,2.51,8.97.73,5.17,1.43,10.34,2.1,15.51.39,3.02.66,6.06,1.01,9.08.52,4.39,1.09,8.77,1.61,13.16.5,4.18.92,8.36,1.46,12.53.25,1.93.71,3.84,1.08,5.76.04.21.11.42.19.63.42,1.13,1.25,1.98,1.9,1.84,1.08-.23,1.5-1.07,1.63-2.07.17-1.37.43-2.74.43-4.1.04-8,.04-16.01.02-24.01-.01-5.89-.04-11.79-.12-17.68-.05-3.92-.12-7.85-.31-11.76-.2-4.23-1.64-7.92-5.13-10.59-.17-.13-.27-.33-.42-.5.18-.78.74-1.05,1.44-1.07,1.02-.02,2.04-.03,3.06,0,2.61.08,5.23.18,7.84.29.7.03,1.51-.12,1.87,1.04-.43.43-.87,1.01-1.44,1.41-2.3,1.6-3.08,3.96-3.36,6.55-.12,1.15-.06,2.33-.06,3.49.05,14.41.1,28.81.16,43.22,0,.72.13,1.44.16,2.17.21,4.36.06,8.71-.8,13-.57,2.83-2.24,4.83-4.95,5.94-1.84.76-3.69.82-5.5.01-2.25-1.01-4.02-2.53-5.06-4.87-1.17-2.61-1.91-5.31-2.3-8.14-.67-4.95-1.39-9.9-2.04-14.86-.52-3.95-.96-7.92-1.45-11.87-.54-4.39-1.12-8.77-1.63-13.16-.38-3.31-.58-6.65-1.02-9.96-.33-2.51-.9-4.99-1.4-7.47-.08-.41-.32-.83-.58-1.16-.71-.9-2-.78-2.5.26-.32.65-.58,1.36-.66,2.06-.21,1.95-.43,3.9-.44,5.86-.03,9.31.01,18.63.03,27.94,0,1.95-.05,3.91-.01,5.85.12,5.67.09,11.34.47,16.99.26,3.98,1.64,7.66,4.92,10.32.29.24.67.86.58.98-.27.35-.75.75-1.15.76-2.84.06-5.68.02-8.52,0-.73,0-1.46.05-2.18-.03-.69-.07-1.37-.28-2.12-.44h0Z"/></svg>